# xmcd
#
# Track frame offsets: 
#        150
#        30108
#        52485
#        77963
#        98615
#        117738
#        139661
#        164513
#        188213
#        212025
#        232386
#
# Disc length: 3422 seconds
#
# Revision: 3
# Processed by: cddbd v1.5.1PL2 Copyright (c) Steve Scherf et al.
# Submitted via: ExactAudioCopy v0.95a5
#
DISCID=a10d5c0b
DTITLE=Sapphron Obois - Sapphron
DYEAR=1999
DGENRE=Jazz
TTITLE0=Sweet Dreams
TTITLE1=Let's Try Again
TTITLE2=Soulmates
TTITLE3=I've Been Calling U
TTITLE4=See You Next Time
TTITLE5=Deja Vu
TTITLE6=Never Say Never
TTITLE7=I Loved You Forever
TTITLE8=Libra Moon
TTITLE9=Sausalito
TTITLE10=Nairobi Nights
EXTD=
EXTT0=
EXTT1=
EXTT2=
EXTT3=
EXTT4=
EXTT5=
EXTT6=
EXTT7=
EXTT8=
EXTT9=
EXTT10=
PLAYORDER=
